<?xml version="1.0" encoding="UTF-8"?><svg id="simbolo_a_colori" xmlns="http://www.w3.org/2000/svg" xmlns:xlink="http://www.w3.org/1999/xlink" viewBox="0 0 600 400"><defs><style>.cls-1{fill:#ba913d;}.cls-2{fill:url(#linear-gradient-2);}.cls-3{fill:url(#linear-gradient-3);}.cls-4{fill:#019595;}.cls-5{fill:#d09d34;}.cls-6{fill:url(#linear-gradient);}.cls-7{fill:#078384;}</style><linearGradient id="linear-gradient" x1="10" y1="188.82" x2="243.04" y2="188.82" gradientUnits="userSpaceOnUse"><stop offset="0" stop-color="#07a0a0"/><stop offset="1" stop-color="#04a7a7"/></linearGradient><linearGradient id="linear-gradient-2" x1="98.7" y1="213.7" x2="360.46" y2="213.7" gradientUnits="userSpaceOnUse"><stop offset="0" stop-color="#e9c859"/><stop offset="1" stop-color="#e7b447"/></linearGradient><linearGradient id="linear-gradient-3" x1="190.68" y1="242.43" x2="490.07" y2="242.43" xlink:href="#linear-gradient-2"/></defs><g id="simbolo"><path class="cls-6" d="M243.04,57.57v50.19c-75.94,50.54-134.69,124.86-165.63,212.31l-67.41-25.25C51.96,187.41,136.58,101.39,243.04,57.57Z"/><path class="cls-4" d="M243.04,6.85l86.71,56.59c-30.74,11.47-59.81,26.4-86.71,44.31V6.85Z"/><path class="cls-7" d="M237.09,111.8c1.97-1.36,3.95-2.71,5.94-4.04v-50.19c-1.99.82-3.97,1.69-5.94,2.54v51.7Z"/><path class="cls-2" d="M360.46,72.83v49.63c-88.9,51.15-157.55,133.5-191,232.11l-70.76-26.51c44.2-119.66,140.7-213.98,261.76-255.23Z"/><path class="cls-1" d="M354.51,125.97c1.98-1.18,3.95-2.36,5.94-3.51v-49.63c-1.99.68-3.97,1.37-5.94,2.08v51.06Z"/><path class="cls-5" d="M360.46,22.82l96.07,59.19c-33.93,9.57-66.15,23.25-96.07,40.45V22.82Z"/><path class="cls-3" d="M490.07,91.72v55.54c-102.09,48.7-181.42,137.43-217.65,245.89l-81.74-30.64c47.44-133.73,159.92-236.66,299.39-270.79Z"/><path class="cls-1" d="M484.12,150.18c1.98-.98,3.95-1.98,5.94-2.93v-55.54c-1.99.49-3.97.99-5.94,1.5v56.96Z"/><path class="cls-5" d="M590,114.32c-35.07,6.8-68.57,17.98-99.93,32.94V35.45l1.96,1.54,97.97,77.33Z"/></g></svg>