<?xml version="1.0" encoding="UTF-8"?><svg id="logo_a_colori" xmlns="http://www.w3.org/2000/svg" xmlns:xlink="http://www.w3.org/1999/xlink" viewBox="0 0 800 600"><defs><style>.cls-1{fill:#ba913d;}.cls-2{fill:url(#linear-gradient-2);}.cls-3{fill:url(#linear-gradient-3);}.cls-4{fill:#282827;}.cls-5{fill:#555;}.cls-6{fill:#019595;}.cls-7{fill:#d09d34;}.cls-8{fill:url(#linear-gradient);}.cls-9{fill:#676767;}.cls-10{fill:#078384;}</style><linearGradient id="linear-gradient" x1="118.88" y1="189.35" x2="343.34" y2="189.35" gradientUnits="userSpaceOnUse"><stop offset="0" stop-color="#07a0a0"/><stop offset="1" stop-color="#04a7a7"/></linearGradient><linearGradient id="linear-gradient-2" x1="204.31" y1="213.31" x2="456.44" y2="213.31" gradientUnits="userSpaceOnUse"><stop offset="0" stop-color="#e9c859"/><stop offset="1" stop-color="#e7b447"/></linearGradient><linearGradient id="linear-gradient-3" x1="292.91" y1="240.98" x2="581.27" y2="240.98" xlink:href="#linear-gradient-2"/></defs><g id="testi"><path id="commercialisti" class="cls-5" d="M188.79,576.15c0-7.87,5.99-13.67,14.1-13.67,3.92,0,7.45,1.31,9.83,3.92l-1.81,1.8c-2.19-2.23-4.88-3.19-7.95-3.19-6.49,0-11.37,4.76-11.37,11.14s4.88,11.14,11.37,11.14c3.07,0,5.76-.96,7.95-3.23l1.81,1.8c-2.38,2.61-5.91,3.96-9.87,3.96-8.07,0-14.06-5.8-14.06-13.67ZM222.36,576.15c0-7.84,5.99-13.67,14.13-13.67s14.1,5.8,14.1,13.67-6.03,13.67-14.1,13.67-14.13-5.84-14.13-13.67ZM247.75,576.15c0-6.41-4.8-11.14-11.25-11.14s-11.33,4.72-11.33,11.14,4.84,11.14,11.33,11.14,11.25-4.72,11.25-11.14ZM291.42,562.7v26.89h-2.73v-21.51l-10.56,18.09h-1.34l-10.56-17.98v21.39h-2.73v-26.89h2.34l11.68,19.93,11.56-19.93h2.34ZM334.63,562.7v26.89h-2.73v-21.51l-10.56,18.09h-1.34l-10.56-17.98v21.39h-2.73v-26.89h2.34l11.68,19.93,11.56-19.93h2.34ZM368.93,587.13v2.46h-19.01v-26.89h18.44v2.46h-15.59v9.56h13.9v2.42h-13.9v9.99h16.17ZM400.51,589.59l-6.15-8.64c-.69.08-1.38.12-2.15.12h-7.22v8.53h-2.84v-26.89h10.06c6.84,0,10.98,3.46,10.98,9.22,0,4.23-2.23,7.18-6.14,8.45l6.57,9.22h-3.11ZM400.35,571.92c0-4.3-2.84-6.76-8.22-6.76h-7.14v13.48h7.14c5.38,0,8.22-2.5,8.22-6.72ZM414.07,576.15c0-7.87,5.99-13.67,14.1-13.67,3.92,0,7.45,1.31,9.83,3.92l-1.8,1.8c-2.19-2.23-4.88-3.19-7.95-3.19-6.49,0-11.37,4.76-11.37,11.14s4.88,11.14,11.37,11.14c3.07,0,5.76-.96,7.95-3.23l1.8,1.8c-2.38,2.61-5.91,3.96-9.87,3.96-8.06,0-14.06-5.8-14.06-13.67ZM450.59,562.7h2.84v26.89h-2.84v-26.89ZM485.59,582.41h-14.98l-3.23,7.18h-2.96l12.29-26.89h2.8l12.29,26.89h-3l-3.23-7.18ZM484.55,580.1l-6.45-14.44-6.45,14.44h12.9ZM502.8,562.7h2.84v24.43h15.06v2.46h-17.9v-26.89ZM531.95,562.7h2.84v26.89h-2.84v-26.89ZM547.51,586.32l1.11-2.19c1.92,1.88,5.34,3.26,8.87,3.26,5.03,0,7.22-2.11,7.22-4.76,0-7.37-16.55-2.84-16.55-12.79,0-3.96,3.07-7.37,9.91-7.37,3.04,0,6.18.88,8.34,2.38l-.96,2.27c-2.3-1.5-4.99-2.23-7.37-2.23-4.92,0-7.1,2.19-7.1,4.88,0,7.37,16.55,2.92,16.55,12.71,0,3.96-3.15,7.34-10.03,7.34-4.03,0-7.99-1.42-9.99-3.5ZM585.07,565.16h-9.45v-2.46h21.74v2.46h-9.45v24.43h-2.84v-24.43ZM608.42,562.7h2.84v26.89h-2.84v-26.89Z"/><path id="studio_malacarne" class="cls-4" d="M25.63,537.57c-1.2,0-2.47-.09-3.82-.26-1.35-.18-2.47-.36-3.37-.56-1.85-.35-3.18-.64-4.01-.86-.82-.22-1.59-.39-2.29-.49-.65-3.1-1.12-5.63-1.42-7.61-.3-1.97-.45-3.41-.45-4.31,0-.3.4-.45,1.2-.45.9,0,1.52.22,1.87.67,1.75,7.19,5.89,10.79,12.44,10.79,2.5,0,4.62-.75,6.37-2.25,1.75-1.5,2.62-3.62,2.62-6.37,0-.9-.19-2-.56-3.3-.37-1.3-1.21-2.42-2.51-3.37-1-.75-1.82-1.31-2.47-1.69-.65-.38-1.3-.72-1.95-1.05-.65-.32-1.47-.79-2.47-1.39l-3-1.8c-1.55-.95-3.1-2.03-4.65-3.26-1.55-1.22-2.84-2.66-3.86-4.31-1.02-1.65-1.54-3.52-1.54-5.62,0-2.65.69-4.96,2.06-6.93,1.37-1.97,3.17-3.51,5.39-4.61,2.22-1.1,4.63-1.65,7.23-1.65,1.1,0,2.14.06,3.11.19.97.13,1.79.26,2.44.41,1.5.35,2.56.63,3.18.82.62.2,1.49.42,2.58.67.6,2.6.9,6.17.9,10.71,0,.35-.25.52-.75.52-1.25,0-1.9-.25-1.95-.75-.25-1.5-.8-2.97-1.65-4.42-.85-1.45-2-2.66-3.45-3.63-1.45-.98-3.17-1.46-5.17-1.46s-3.65.39-4.8,1.16c-1.15.77-1.96,1.75-2.44,2.92-.48,1.18-.71,2.41-.71,3.71s.3,2.5.9,3.75c.6,1.25,1.47,2.3,2.62,3.15,1.55,1.15,3.11,2.22,4.68,3.22,1.57,1,3.21,2.02,4.91,3.07,1.6,1,3.2,2.11,4.8,3.33,1.6,1.23,2.93,2.61,4.01,4.16,1.07,1.55,1.61,3.35,1.61,5.39,0,2.65-.72,5.01-2.17,7.08-1.45,2.07-3.36,3.7-5.73,4.87-2.37,1.17-4.96,1.76-7.75,1.76ZM63.01,537.05c-.2-.2-.3-.57-.3-1.12,0-.7.1-1.05.3-1.05.45,0,1.05-.06,1.8-.19.75-.12,1.45-.31,2.1-.56.65-.25,1.02-.5,1.12-.75.2-.7.34-1.6.41-2.7.07-1.1.11-2.42.11-3.97v-27.12c0-4.35-.22-6.92-.67-7.72-.35-.75-3.05-1.12-8.09-1.12-1.9,0-3.37.16-4.42.49-1.05.33-1.85.96-2.4,1.91-.55.95-1.07,2.37-1.57,4.27-.1.25-.35.37-.75.37-.85,0-1.45-.17-1.8-.52l1.42-10.71c1.1.25,2.07.45,2.92.6.85.15,1.6.22,2.25.22,3.6,0,6.77.05,9.52.15,2.75.1,5.04.15,6.89.15,3.85,0,7.16-.05,9.93-.15,2.77-.1,4.96-.15,6.56-.15.65,0,1.4-.07,2.25-.22.85-.15,1.82-.35,2.92-.6l1.42,10.71c-.35.35-.95.52-1.8.52-.4,0-.65-.12-.75-.37-.45-1.9-.96-3.32-1.54-4.27-.57-.95-1.39-1.58-2.44-1.91-1.05-.32-2.52-.49-4.42-.49-5.24,0-7.99.37-8.24,1.12-.45,1.55-.67,4.05-.67,7.49v27.05c0,2.9.22,5.22.67,6.97.1.2.47.42,1.12.67.65.25,1.35.45,2.1.6s1.27.22,1.57.22c.2,0,.3.37.3,1.12,0,.3-.05.65-.15,1.05-2.5-.1-4.47-.19-5.92-.26-1.45-.07-2.37-.11-2.77-.11l-8.99.37ZM126.46,536.82c-5.94,0-10.52-1.75-13.71-5.24-3.2-3.5-4.8-9.14-4.8-16.93v-17.01c0-1.55-.04-2.88-.11-4.01-.07-1.12-.21-2.01-.41-2.66-.1-.3-.48-.56-1.12-.79-.65-.22-1.35-.41-2.1-.56-.75-.15-1.35-.22-1.8-.22-.2,0-.3-.32-.3-.97,0-.6.1-1,.3-1.2l8.99.37c.4,0,1.32-.04,2.77-.11,1.45-.07,3.42-.16,5.92-.26.1.4.15.75.15,1.05,0,.75-.1,1.12-.3,1.12-.3,0-.82.09-1.57.26-.75.18-1.45.37-2.1.6-.65.22-1.02.46-1.12.71-.45,1.7-.67,4.02-.67,6.97v16.71c0,5.65,1.2,10.14,3.6,13.49,2.4,3.35,5.79,5.02,10.19,5.02,8.54,0,12.81-5.62,12.81-16.86v-18.73c0-3.15-.18-5.34-.52-6.59-.1-.3-.55-.57-1.35-.82-.8-.25-1.65-.46-2.55-.64-.9-.17-1.57-.26-2.02-.26-.2,0-.3-.3-.3-.9,0-.55.1-.92.3-1.12.45,0,1.2.04,2.25.11,1.05.08,2.18.15,3.41.23,1.22.07,2.29.11,3.18.11,1.3,0,2.95-.07,4.95-.22,1.95-.15,3.1-.22,3.45-.22.1.4.15.77.15,1.12,0,.6-.1.9-.3.9-.3,0-.92.1-1.87.3-.95.2-1.84.42-2.66.67-.82.25-1.29.5-1.39.75-.2.8-.35,1.77-.45,2.92-.1,1.15-.15,2.5-.15,4.05v18.21c0,5.15-.72,9.23-2.17,12.25-1.45,3.02-3.57,5.18-6.37,6.48-2.8,1.3-6.19,1.95-10.19,1.95ZM159.11,537.05c-.15-.15-.22-.52-.22-1.12,0-.7.07-1.05.22-1.05.45,0,1.05-.09,1.8-.26.75-.17,1.46-.39,2.14-.64.67-.25,1.09-.52,1.24-.82.35-.55.52-2.9.52-7.04v-28.32c0-1.45-.04-2.72-.11-3.82-.07-1.1-.21-1.97-.41-2.62-.1-.3-.49-.57-1.16-.82-.67-.25-1.4-.45-2.17-.6-.77-.15-1.39-.22-1.84-.22-.2,0-.3-.3-.3-.9,0-.65.1-1.07.3-1.27,1.3.05,2.68.09,4.16.11,1.47.03,3.06.04,4.76.04l7.27-.07c1.45,0,2.65-.01,3.6-.04.95-.02,1.67-.04,2.17-.04,5.44,0,10.09,1.11,13.94,3.33,3.85,2.22,6.79,5.16,8.84,8.8,2.05,3.65,3.07,7.64,3.07,11.99,0,4.8-1.04,9.14-3.11,13.04-2.07,3.9-5.05,6.97-8.92,9.22-3.87,2.25-8.5,3.3-13.9,3.15l-5.32-.15c-1.5-.05-2.87-.09-4.12-.11-1.25-.02-2.37-.01-3.37.04l-9.07.22ZM182.19,533.6c11.49,0,17.23-7.42,17.23-22.25,0-3.8-.67-7.24-2.02-10.34-1.35-3.1-3.33-5.57-5.96-7.42-2.62-1.85-5.88-2.77-9.78-2.77h-.37c-5.39,0-8.39.4-8.99,1.2-.65.85-.97,2.42-.97,4.72v29.67c0,2.05.37,3.95,1.12,5.69.1.25.52.46,1.27.64.75.18,1.66.33,2.73.45,1.07.13,2.14.23,3.18.3,1.05.08,1.9.11,2.55.11ZM216.27,537.05c-.2-.2-.3-.57-.3-1.12,0-.7.1-1.05.3-1.05.45,0,1.05-.06,1.8-.19.75-.12,1.45-.31,2.1-.56.65-.25,1.02-.5,1.12-.75.2-.7.34-1.6.41-2.7.07-1.1.11-2.42.11-3.97v-29.07c0-1.55-.04-2.88-.11-4.01-.07-1.12-.21-2.01-.41-2.66-.1-.3-.48-.56-1.12-.79-.65-.22-1.35-.41-2.1-.56-.75-.15-1.35-.22-1.8-.22-.2,0-.3-.32-.3-.97,0-.6.1-1,.3-1.2l8.99.37c.4,0,1.32-.04,2.77-.11,1.45-.07,3.42-.16,5.92-.26.1.4.15.77.15,1.12,0,.7-.1,1.05-.3,1.05-.3,0-.82.09-1.57.26-.75.18-1.45.37-2.1.6-.65.22-1.02.46-1.12.71-.45,1.7-.67,4.02-.67,6.97v28.47c0,2.9.22,5.22.67,6.97.1.2.47.42,1.12.67.65.25,1.35.45,2.1.6s1.27.22,1.57.22c.2,0,.3.37.3,1.12,0,.3-.05.65-.15,1.05-2.5-.1-4.47-.19-5.92-.26-1.45-.07-2.37-.11-2.77-.11l-8.99.37ZM250.05,530.16c-4.7-4.89-7.04-10.86-7.04-17.91,0-3.5.62-6.78,1.87-9.85,1.25-3.07,2.96-5.77,5.13-8.09,2.17-2.32,4.71-4.15,7.6-5.47,2.9-1.32,5.99-1.98,9.29-1.98s6.39.66,9.29,1.98c2.9,1.33,5.44,3.15,7.64,5.47,2.2,2.32,3.92,5.02,5.17,8.09,1.25,3.07,1.87,6.36,1.87,9.85,0,7.04-2.35,13.01-7.04,17.91-3.2,3.4-6.82,5.66-10.86,6.78-4.05,1.12-8.08,1.12-12.1,0-4.02-1.12-7.63-3.38-10.83-6.78ZM268.11,534.35c3.2,0,5.99-1.05,8.39-3.15,2.4-2.05,4.16-4.61,5.28-7.68,1.12-3.07,1.69-6.36,1.69-9.85,0-3.95-.65-7.72-1.95-11.31-1.3-3.55-3.32-6.49-6.07-8.84-2.75-2.35-5.97-3.52-9.67-3.52-3.15,0-5.87.96-8.17,2.88-2.3,1.92-4.07,4.45-5.32,7.57-1.25,3.12-1.87,6.51-1.87,10.15,0,3.95.65,7.72,1.95,11.31,1.3,3.55,3.32,6.51,6.07,8.88,2.75,2.37,5.97,3.56,9.67,3.56ZM319.26,537.05c-.25-.25-.37-.62-.37-1.12,0-.7.12-1.05.37-1.05.5,0,1.15-.07,1.95-.22.8-.15,1.57-.35,2.32-.6.75-.25,1.27-.52,1.57-.82.85-.9,1.3-3.07,1.35-6.52.1-5.79.21-11,.34-15.62.12-4.62.24-8.42.34-11.39.1-2.97.15-4.88.15-5.73,0-1.35-.1-2.35-.3-3-.1-.3-.54-.56-1.31-.79-.77-.22-1.61-.41-2.51-.56-.9-.15-1.6-.22-2.1-.22-.2,0-.3-.35-.3-1.05,0-.55.1-.92.3-1.12,1.2.05,2.52.13,3.97.22,1.45.1,2.92.15,4.42.15.95,0,1.99-.04,3.11-.11,1.12-.07,2.38-.16,3.78-.26.4,1.1,5.34,13.61,14.84,37.54.1.1.2.15.3.15.2,0,.32-.1.37-.3,2.45-5.74,4.65-10.99,6.59-15.73,1.95-4.74,3.65-8.97,5.09-12.66l3-8.99c1.6.1,2.91.18,3.93.22,1.02.05,1.79.07,2.29.07,1.55,0,3.02-.02,4.42-.07,1.4-.05,2.72-.12,3.97-.22.15.45.22.82.22,1.12,0,.7-.13,1.05-.37,1.05h-.15c-.55,0-1.27.16-2.17.49-.9.33-1.57.66-2.02,1.01-.6.45-.9,2.12-.9,5.02l.67,30.42c.1,2.9.47,5.2,1.12,6.89.15.3.55.57,1.2.82.65.25,1.36.45,2.14.6.77.15,1.34.22,1.69.22.2,0,.3.35.3,1.05,0,.35-.05.72-.15,1.12-2.5-.1-4.48-.19-5.96-.26-1.47-.07-2.46-.11-2.96-.11l-8.99.37c-.2-.2-.3-.6-.3-1.2,0-.65.1-.97.3-.97.5,0,1.26-.12,2.29-.37,1.02-.25,1.76-.5,2.21-.75.6-.4.9-1.47.9-3.22v-3.97l-.9-26.37c0-.55-.06-1.16-.19-1.84-.13-.68-.26-1.27-.41-1.8-.15-.53-.33-.79-.52-.79-.1,0-.22.18-.37.52l-15.66,37.46c-.95,2.15-1.87,3.22-2.77,3.22-.05,0-.28-.05-.67-.15l-17.16-43.61c-.15,7.04-.33,13.33-.52,18.84-.2,5.52-.36,9.95-.49,13.3-.13,3.35-.19,5.3-.19,5.84,0,.9.15,1.55.45,1.95.2.25.7.51,1.5.79.8.28,1.64.5,2.51.68.87.18,1.46.26,1.76.26.2,0,.3.37.3,1.12,0,.3-.05.65-.15,1.05-2.5-.1-4.47-.19-5.92-.26-1.45-.07-2.37-.11-2.77-.11l-8.77.37ZM387.44,537.05c-.2-.2-.3-.57-.3-1.12,0-.7.1-1.05.3-1.05.6,0,1.37-.12,2.32-.37.95-.25,1.6-.6,1.95-1.05.55-.7,1.11-1.62,1.69-2.77.57-1.15,1.19-2.57,1.84-4.27l13.04-33.49c.3-.75.49-1.27.56-1.57.08-.3.15-.56.23-.79.07-.23.24-.61.49-1.16.35-.7.7-1.25,1.05-1.65.35-.4.92-.6,1.72-.6l.67.22,14.99,39.56c.45,1.15.86,2.17,1.24,3.07.38.9.69,1.67.94,2.32.2.5.64.94,1.31,1.31.68.38,1.37.68,2.1.9.72.23,1.29.34,1.69.34.2,0,.3.48.3,1.42,0,.1-.01.21-.04.34-.02.13-.06.26-.11.41-2.5-.1-4.43-.19-5.81-.26-1.38-.07-2.19-.11-2.44-.11l-8.69.37c-.2-.2-.29-.61-.26-1.24.02-.62.14-.94.34-.94.6,0,1.35-.12,2.25-.37.9-.25,1.42-.57,1.57-.97.05-.2.09-.4.11-.6.02-.2.04-.4.04-.6,0-.65-.07-1.41-.22-2.29-.15-.87-.33-1.56-.52-2.06l-3.37-9.29c-.15-.2-.3-.3-.45-.3-1.95-.15-3.85-.22-5.69-.22-1.3,0-2.73.04-4.31.11-1.57.07-3.31.16-5.21.26l-.37.22-3.22,8.24c-.5,1.25-.84,2.3-1.01,3.15-.18.85-.26,1.52-.26,2.02,0,.7.2,1.2.6,1.5.45.35,1.17.64,2.17.86,1,.23,1.72.34,2.17.34.15,0,.24.3.26.9.02.6-.01,1.02-.11,1.27l-7.72-.37c-1.4-.1-2.76-.09-4.08.04-1.32.12-2.56.24-3.71.34ZM409.61,514.57c2.25,0,4.52-.07,6.82-.22l.22-.37-6.07-16.56-6.44,16.71c0,.2.05.3.15.3,1.3.05,2.39.09,3.26.11.87.03,1.56.04,2.06.04ZM477.19,537.12c-2.6,0-6.64-.07-12.14-.22-2.75-.1-5.24-.17-7.49-.22-2.25-.05-4.22-.05-5.92,0l-9.07.22c-.15-.15-.22-.55-.22-1.2s.07-.97.22-.97c.5,0,1.11-.07,1.84-.22s1.42-.34,2.1-.56c.68-.22,1.09-.49,1.24-.79.35-.55.52-2.9.52-7.04v-28.32c0-3.3-.18-5.57-.52-6.82-.1-.3-.48-.56-1.12-.79-.65-.22-1.35-.41-2.1-.56-.75-.15-1.35-.22-1.8-.22-.2,0-.3-.32-.3-.97,0-.6.1-1,.3-1.2.45,0,1.21.04,2.28.11,1.07.08,2.24.15,3.48.23,1.25.07,2.32.11,3.22.11,1.6,0,3.2-.06,4.8-.19,1.6-.12,2.9-.21,3.9-.26.1.4.15.77.15,1.12,0,.7-.1,1.05-.3,1.05-.3,0-.82.09-1.57.26-.75.18-1.45.37-2.1.6-.65.22-1.02.46-1.12.71-.45,1.7-.67,4.02-.67,6.97v28.25c0,2.65.22,4.85.67,6.59.15.5,1.85.75,5.09.75h3.6c4.6,0,7.74-.42,9.44-1.27.75-.4,1.58-1.28,2.51-2.66.92-1.37,1.66-3.01,2.21-4.91.1-.3.45-.45,1.05-.45.95,0,1.57.15,1.87.45-.15.4-.39,1.01-.71,1.84-.32.82-.64,1.66-.94,2.51-.3.85-.55,1.57-.75,2.17-.3.9-.63,1.92-.97,3.07-.35,1.15-.57,2.1-.67,2.85ZM484.52,537.05c-.2-.2-.3-.57-.3-1.12,0-.7.1-1.05.3-1.05.6,0,1.37-.12,2.32-.37.95-.25,1.6-.6,1.95-1.05.55-.7,1.11-1.62,1.69-2.77.57-1.15,1.19-2.57,1.84-4.27l13.04-33.49c.3-.75.49-1.27.56-1.57.08-.3.15-.56.23-.79.07-.23.24-.61.49-1.16.35-.7.7-1.25,1.05-1.65.35-.4.92-.6,1.72-.6l.67.22,14.99,39.56c.45,1.15.86,2.17,1.24,3.07.38.9.69,1.67.94,2.32.2.5.64.94,1.31,1.31.68.38,1.37.68,2.1.9.72.23,1.29.34,1.69.34.2,0,.3.48.3,1.42,0,.1-.01.21-.04.34-.02.13-.06.26-.11.41-2.5-.1-4.43-.19-5.81-.26-1.38-.07-2.19-.11-2.44-.11l-8.69.37c-.2-.2-.29-.61-.26-1.24.02-.62.14-.94.34-.94.6,0,1.35-.12,2.25-.37.9-.25,1.42-.57,1.57-.97.05-.2.09-.4.11-.6.02-.2.04-.4.04-.6,0-.65-.07-1.41-.22-2.29-.15-.87-.33-1.56-.52-2.06l-3.37-9.29c-.15-.2-.3-.3-.45-.3-1.95-.15-3.85-.22-5.69-.22-1.3,0-2.73.04-4.31.11-1.57.07-3.31.16-5.21.26l-.37.22-3.22,8.24c-.5,1.25-.84,2.3-1.01,3.15-.18.85-.26,1.52-.26,2.02,0,.7.2,1.2.6,1.5.45.35,1.17.64,2.17.86,1,.23,1.72.34,2.17.34.15,0,.24.3.26.9.02.6-.01,1.02-.11,1.27l-7.72-.37c-1.4-.1-2.76-.09-4.08.04-1.32.12-2.56.24-3.71.34ZM506.7,514.57c2.25,0,4.52-.07,6.82-.22l.22-.37-6.07-16.56-6.44,16.71c0,.2.05.3.15.3,1.3.05,2.39.09,3.26.11.87.03,1.56.04,2.06.04ZM560.78,537.27c-3.3,0-6.38-.65-9.25-1.95-2.87-1.3-5.39-3.07-7.57-5.32-2.17-2.25-3.87-4.86-5.09-7.83-1.23-2.97-1.84-6.13-1.84-9.48,0-3.55.62-6.88,1.87-10,1.25-3.12,3-5.87,5.24-8.24,2.25-2.37,4.86-4.23,7.83-5.58,2.97-1.35,6.18-2.02,9.63-2.02,2.95,0,5.94.15,8.99.45,3.05.3,6.12.77,9.22,1.42l-.15,10.79c0,.75-.52,1.12-1.57,1.12-.5,0-.82-.12-.97-.37-.15-.65-.34-1.31-.56-1.99-.22-.67-.69-1.56-1.39-2.66-1.2-1.75-2.91-3.12-5.13-4.12-2.22-1-4.96-1.5-8.2-1.5-2.45,0-4.75.59-6.89,1.76-2.15,1.17-4.03,2.76-5.66,4.76-1.62,2-2.88,4.26-3.78,6.78-.9,2.52-1.35,5.13-1.35,7.83,0,4.15.7,7.87,2.1,11.16,1.4,3.4,3.61,6.21,6.63,8.43,3.02,2.22,6.61,3.33,10.75,3.33,4.95,0,8.77-1.45,11.46-4.35.8-.85,1.42-1.85,1.87-3,.45-1.15.8-2.15,1.05-3,.25-.85.5-1.27.75-1.27.3,0,.66.04,1.09.11.42.08.76.19,1.01.34l.37.22c0,.3-.1,1-.3,2.1-.2,1.1-.45,2.31-.75,3.63-.3,1.33-.59,2.49-.86,3.48-.28,1-.49,1.55-.64,1.65-3.7,2.2-9.67,3.3-17.91,3.3ZM587.45,537.05c-.2-.2-.3-.57-.3-1.12,0-.7.1-1.05.3-1.05.6,0,1.37-.12,2.32-.37.95-.25,1.6-.6,1.95-1.05.55-.7,1.11-1.62,1.69-2.77.57-1.15,1.19-2.57,1.84-4.27l13.04-33.49c.3-.75.49-1.27.56-1.57s.15-.56.22-.79c.07-.23.24-.61.49-1.16.35-.7.7-1.25,1.05-1.65.35-.4.92-.6,1.72-.6l.67.22,14.99,39.56c.45,1.15.86,2.17,1.24,3.07.37.9.69,1.67.94,2.32.2.5.64.94,1.31,1.31.68.38,1.37.68,2.1.9.72.23,1.29.34,1.69.34.2,0,.3.48.3,1.42,0,.1-.01.21-.04.34-.03.13-.06.26-.11.41-2.5-.1-4.44-.19-5.81-.26-1.37-.07-2.19-.11-2.43-.11l-8.69.37c-.2-.2-.29-.61-.26-1.24.02-.62.14-.94.34-.94.6,0,1.35-.12,2.25-.37.9-.25,1.42-.57,1.57-.97.05-.2.09-.4.11-.6.02-.2.04-.4.04-.6,0-.65-.08-1.41-.23-2.29-.15-.87-.32-1.56-.52-2.06l-3.37-9.29c-.15-.2-.3-.3-.45-.3-1.95-.15-3.85-.22-5.69-.22-1.3,0-2.73.04-4.31.11-1.57.07-3.31.16-5.21.26l-.38.22-3.22,8.24c-.5,1.25-.84,2.3-1.01,3.15-.18.85-.26,1.52-.26,2.02,0,.7.2,1.2.6,1.5.45.35,1.17.64,2.17.86,1,.23,1.72.34,2.17.34.15,0,.24.3.26.9.02.6-.01,1.02-.11,1.27l-7.72-.37c-1.4-.1-2.76-.09-4.08.04-1.32.12-2.56.24-3.71.34ZM609.62,514.57c2.25,0,4.52-.07,6.82-.22l.23-.37-6.07-16.56-6.44,16.71c0,.2.05.3.15.3,1.3.05,2.39.09,3.26.11.87.03,1.56.04,2.06.04ZM687.61,537.2c-6.94,0-13.01-3.6-18.21-10.79-.4-.55-.91-1.3-1.54-2.25-.63-.95-1.76-2.62-3.41-5.02-.8-1.15-1.51-2.11-2.13-2.89-.63-.77-1.35-1.36-2.17-1.76-.82-.4-1.94-.6-3.33-.6-.55,0-.99.07-1.31.22-.33.15-.49.5-.49,1.05v11.01c0,3.3.2,5.47.6,6.52.2.4.69.77,1.46,1.12.77.35,1.61.61,2.51.79.9.18,1.55.26,1.95.26.2,0,.3.35.3,1.05,0,.35-.05.72-.15,1.12-2.5-.1-4.56-.2-6.18-.3-1.62-.1-2.81-.12-3.56-.07l-9.14.37c-.15-.15-.22-.6-.22-1.35,0-.65.07-.97.22-.97.5,0,1.11-.07,1.84-.22.72-.15,1.42-.34,2.1-.56.67-.22,1.09-.49,1.24-.79.35-.55.52-2.9.52-7.04v-28.32c0-1.45-.04-2.72-.11-3.82-.08-1.1-.21-1.97-.41-2.62-.1-.3-.49-.57-1.16-.82-.67-.25-1.4-.45-2.17-.6-.78-.15-1.39-.22-1.84-.22-.2,0-.3-.3-.3-.9,0-.65.1-1.07.3-1.27l8.99.15c1.45.05,3.22.01,5.32-.11,2.1-.12,3.85-.19,5.24-.19,2.7,0,5.28.52,7.76,1.57,2.47,1.05,4.5,2.6,6.07,4.65,1.57,2.05,2.36,4.55,2.36,7.49,0,2.1-.79,4.3-2.36,6.59-1.57,2.3-3.71,4.07-6.41,5.32-.5.2-.65.45-.45.75,2.45,5.2,5.32,9.59,8.62,13.19,4.8,5.24,8.69,7.87,11.69,7.87.15.3.22.65.22,1.05,0,.45-.07.82-.22,1.12-.5.15-1.17.22-2.02.22ZM661.54,510.68h1.87c1.2,0,2.43-.4,3.71-1.2,1.27-.8,2.35-1.92,3.22-3.37.87-1.45,1.31-3.12,1.31-5.02,0-6.94-3.5-10.41-10.49-10.41-2.3,0-4.05.18-5.24.52-.45.1-.71.91-.79,2.43-.08,1.53-.11,3.46-.11,5.81v9.07c0,1.45,2.17,2.17,6.52,2.17ZM736.08,537.2c-.8,0-1.62-.57-2.47-1.72l-29.07-41.21v31.99c0,3.4.17,5.72.52,6.97.1.2.54.44,1.31.71.77.28,1.61.5,2.51.68.9.18,1.5.26,1.8.26.15,0,.24.3.26.9.02.6-.01,1.02-.11,1.27-2.5-.1-4.46-.19-5.88-.26-1.42-.07-2.34-.11-2.74-.11l-8.62.37c-.15-.15-.22-.52-.22-1.12,0-.7.07-1.05.22-1.05.5,0,1.2-.09,2.1-.26.9-.17,1.75-.4,2.55-.68.8-.27,1.25-.56,1.35-.86.5-1.2.75-3.55.75-7.04v-29.45c0-2.55-.18-4.42-.52-5.62-.1-.3-.54-.56-1.31-.79-.78-.22-1.61-.41-2.51-.56-.9-.15-1.6-.22-2.1-.22-.2,0-.3-.32-.3-.97,0-.6.1-1,.3-1.2,1.95.05,3.56.09,4.83.11,1.27.03,2.21.04,2.81.04,1.3,0,2.45-.01,3.45-.04,1-.02,1.85-.06,2.55-.11.95,1.7,3.53,5.61,7.76,11.73,4.22,6.12,10.1,14.45,17.64,24.99.15-.85.22-1.87.22-3.07v-23.3c0-3.15-.18-5.34-.52-6.59-.1-.3-.55-.57-1.35-.82-.8-.25-1.65-.46-2.55-.64-.9-.17-1.57-.26-2.02-.26-.2,0-.3-.3-.3-.9,0-.55.1-.92.3-1.12.45,0,1.2.04,2.25.11,1.05.08,2.18.15,3.41.23,1.22.07,2.28.11,3.18.11,1.3,0,2.95-.07,4.95-.22,1.95-.15,3.1-.22,3.45-.22.1.4.15.77.15,1.12,0,.6-.1.9-.3.9-.3,0-.92.1-1.87.3-.95.2-1.84.42-2.66.67-.83.25-1.29.5-1.39.75-.2.8-.35,1.77-.45,2.92-.1,1.15-.15,2.5-.15,4.05v28.47c0,3.1.07,6.59.22,10.49-.2.2-.67.3-1.42.3ZM785.74,537.12c-1.25,0-2.88-.01-4.91-.04-2.02-.03-4.41-.06-7.15-.11-2.75-.05-5.24-.09-7.49-.11-2.25-.03-4.25-.04-5.99-.04l-9.07.22c-.15-.15-.22-.55-.22-1.2s.07-.97.22-.97c.45,0,1.05-.09,1.8-.26.75-.17,1.46-.39,2.13-.64.68-.25,1.09-.52,1.24-.82.35-.55.52-2.9.52-7.04v-28.32c0-1.45-.04-2.72-.11-3.82-.07-1.1-.21-1.97-.41-2.62-.1-.3-.49-.57-1.16-.82-.68-.25-1.4-.45-2.17-.6-.77-.15-1.39-.22-1.84-.22-.2,0-.3-.3-.3-.9,0-.65.1-1.07.3-1.27,1.3.05,2.68.09,4.16.11,1.47.03,3.06.04,4.76.04,1.15,0,2.7-.02,4.65-.07,1.95-.05,4.3-.12,7.04-.22,2.8-.1,5.23-.17,7.3-.22,2.07-.05,3.81-.07,5.21-.07.1.7.25,1.54.45,2.51.2.98.45,2.04.75,3.18.25,1.2.46,2.17.64,2.92.17.75.29,1.27.34,1.57-.25.25-.7.37-1.35.37s-1-.17-1.05-.52c-.75-2.75-1.8-4.51-3.15-5.28-1.35-.77-3.2-1.16-5.54-1.16h-5.02c-4.35,0-6.54.33-6.59.97-.1.6-.19,1.42-.26,2.47-.07,1.05-.11,2.32-.11,3.82v11.99c0,.3,1.07.45,3.22.45h3.97c1.7,0,2.85-.01,3.45-.04.6-.02,1.04-.09,1.31-.19.27-.1.81-.25,1.61-.45.5-.1.89-.69,1.16-1.76.27-1.07.51-1.96.71-2.66.05-.35.42-.52,1.12-.52.6,0,1.02.13,1.27.37v14.16c-.2.2-.6.3-1.2.3-.65,0-1.05-.2-1.2-.6-.2-.7-.37-1.3-.52-1.8-.15-.5-.28-.92-.37-1.27-.25-.7-.44-1.1-.56-1.2-.13-.1-.34-.25-.64-.45-.7-.4-3.35-.6-7.94-.6-3.6,0-5.39.22-5.39.67v11.61c0,3.25.22,5.52.67,6.82.15.5,1.85.75,5.09.75h3.6c4.6,0,7.74-.42,9.44-1.27.75-.4,1.58-1.28,2.51-2.66.92-1.37,1.66-3.01,2.21-4.91.1-.3.45-.45,1.05-.45.95,0,1.57.15,1.87.45-.15.4-.39,1.01-.71,1.84-.33.82-.64,1.66-.94,2.51-.3.85-.55,1.57-.75,2.17-.3.9-.63,1.92-.97,3.07-.35,1.15-.57,2.1-.67,2.85Z"/></g><g id="linee"><rect class="cls-9" x="9.79" y="448.84" width="779.52" height="2.82"/><rect class="cls-9" x="10.27" y="576.94" width="149.87" height="2.82"/><rect class="cls-9" x="640.88" y="576.94" width="148.9" height="2.82"/></g><g id="simbolo"><path class="cls-8" d="M343.34,62.93v48.34c-73.14,48.68-129.73,120.26-159.53,204.49l-64.93-24.32c40.41-103.45,121.92-186.3,224.46-228.51Z"/><path class="cls-6" d="M343.34,14.08l83.52,54.51c-29.61,11.05-57.61,25.43-83.52,42.68V14.08Z"/><path class="cls-10" d="M337.61,115.17c1.9-1.31,3.8-2.61,5.73-3.89v-48.34c-1.92.79-3.82,1.62-5.73,2.44v49.79Z"/><path class="cls-2" d="M456.44,77.63v47.8c-85.62,49.27-151.75,128.59-183.97,223.56l-68.16-25.53c42.57-115.26,135.52-206.1,252.12-245.83Z"/><path class="cls-1" d="M450.71,128.81c1.9-1.14,3.8-2.28,5.73-3.38v-47.8c-1.92.65-3.82,1.32-5.73,2v49.18Z"/><path class="cls-7" d="M456.44,29.46l92.54,57.01c-32.68,9.22-63.72,22.39-92.54,38.96V29.46Z"/><path class="cls-3" d="M581.27,95.82v53.49c-98.33,46.91-174.74,132.37-209.63,236.84l-78.73-29.51c45.7-128.8,154.03-227.95,288.37-260.82Z"/><path class="cls-1" d="M575.55,152.13c1.91-.95,3.8-1.9,5.73-2.82v-53.49c-1.91.47-3.82.95-5.73,1.45v54.86Z"/><path class="cls-7" d="M677.52,117.59c-33.78,6.55-66.04,17.32-96.25,31.72V41.62l1.89,1.48,94.37,74.48Z"/></g></svg>